ffmpeg started on 2025-06-06 at 19:15:23
Report written to "D:\Convert\FFMetrics\reports\ssim_report-6.txt"
Log level: 32
Command line:
ffmpeg -hide_banner -nostdin -i "G:\\\xc0\xed\xe8\xec\xe5\\\xce\xed\xe3\xee\xe8\xed\xe3\xe8\\!_36_\xce\xf1\xe5\xed\xfc_2024\\DreamCast\\\xd0\xee\xed \xca\xe0\xec\xee\xed\xee\xf5\xe0\xf1\xe8 - \xcd\xe5\xe2\xec\xe5\xed\xff\xe5\xec\xfb\xe9 \xe4\xe5\xf2\xe5\xea\xf2\xe8\xe2\\\xd2\xc2-1\\[DC] Kamonohashi Ron no Kindan Suiri - 04_Telegram_HEVC.mkv" -i "G:\\\xc0\xed\xe8\xec\xe5\\\xce\xed\xe3\xee\xe8\xed\xe3\xe8\\!_36_\xce\xf1\xe5\xed\xfc_2024\\DreamCast\\\xd0\xee\xed \xca\xe0\xec\xee\xed\xee\xf5\xe0\xf1\xe8 - \xcd\xe5\xe2\xec\xe5\xed\xff\xe5\xec\xfb\xe9 \xe4\xe5\xf2\xe5\xea\xf2\xe8\xe2\\\xd2\xc2-1\\[DC] Kamonohashi Ron no Kindan Suiri - 04_Telegram.mp4" -lavfi "[0:v]settb=AVTB,setpts=PTS-STARTPTS,format=pix_fmts=yuv420p10,fps=24000/1001,scale=1920:1080:flags=bicubic[main];[1:v]settb=AVTB,setpts=PTS-STARTPTS,format=pix_fmts=yuv420p,fps=24000/1001,scale=1920:1080:flags=bicubic[ref];[main][ref]ssim=eof_action=endall:stats_file='D\\:/Convert/FFMetrics/logs/ssim_logfile-6.txt'" -f null -
Input #0, matroska,webm, from 'G:\Аниме\Онгоинги\!_36_Осень_2024\DreamCast\Рон Камонохаси - Невменяемый детектив\ТВ-1\[DC] Kamonohashi Ron no Kindan Suiri - 04_Telegram_HEVC.mkv':
  Metadata:
    COMPATIBLE_BRANDS: isomiso2avc1mp41
    MAJOR_BRAND     : isom
    MINOR_VERSION   : 512
    ENCODER         : Lavf61.7.100
  Duration: 00:23:46.73, start: -0.021000, bitrate: 810 kb/s
  Stream #0:0: Video: hevc (Main 10), yuv420p10le(tv, bt709, progressive), 1920x1080 [SAR 1:1 DAR 16:9], 23.98 fps, 23.98 tbr, 1k tbn (default)
      Metadata:
        HANDLER_NAME    : VideoHandler
        VENDOR_ID       : [0][0][0][0]
        ENCODER         : Lavc61.19.100 libx265
        BPS             : 612739
        DURATION        : 00:23:46.549708333
        NUMBER_OF_FRAMES: 34203
        NUMBER_OF_BYTES : 109262932
        _STATISTICS_WRITING_APP: mkvpropedit v66.0.0 ('Josie') 64-bit
        _STATISTICS_WRITING_DATE_UTC: 2025-06-03 14:39:21
        _STATISTICS_TAGS: BPS DURATION NUMBER_OF_FRAMES NUMBER_OF_BYTES
  Stream #0:1: Audio: aac (LC), 48000 Hz, stereo, fltp (default)
      Metadata:
        HANDLER_NAME    : SoundHandler
        VENDOR_ID       : [0][0][0][0]
        ENCODER         : Lavc61.19.100 aac
        BPS             : 193384
        DURATION        : 00:23:46.730000000
        NUMBER_OF_FRAMES: 66879
        NUMBER_OF_BYTES : 34488480
        _STATISTICS_WRITING_APP: mkvpropedit v66.0.0 ('Josie') 64-bit
        _STATISTICS_WRITING_DATE_UTC: 2025-06-03 14:39:21
        _STATISTICS_TAGS: BPS DURATION NUMBER_OF_FRAMES NUMBER_OF_BYTES
Input #1, mov,mp4,m4a,3gp,3g2,mj2, from 'G:\Аниме\Онгоинги\!_36_Осень_2024\DreamCast\Рон Камонохаси - Невменяемый детектив\ТВ-1\[DC] Kamonohashi Ron no Kindan Suiri - 04_Telegram.mp4':
  Metadata:
    major_brand     : isom
    minor_version   : 512
    compatible_brands: isomiso2avc1mp41
    encoder         : Lavf60.12.100
  Duration: 00:23:46.68, start: 0.000000, bitrate: 3377 kb/s
  Stream #1:0[0x1](und): Video: h264 (High) (avc1 / 0x31637661), yuv420p(tv, bt709, progressive), 1920x1080 [SAR 1:1 DAR 16:9], 3229 kb/s, 23.98 fps, 23.98 tbr, 24k tbn (default)
      Metadata:
        handler_name    : VideoHandler
        vendor_id       : [0][0][0][0]
        encoder         : Lavc60.26.100 h264_qsv
  Stream #1:1[0x2](und): Audio: aac (HE-AACv2) (mp4a / 0x6134706D), 48000 Hz, stereo, fltp, 144 kb/s (default)
      Metadata:
        handler_name    : SoundHandler
        vendor_id       : [0][0][0][0]
Stream mapping:
  Stream #0:0 (hevc) -> settb:default
  Stream #1:0 (h264) -> settb:default
  ssim:default -> Stream #0:0 (wrapped_avframe)
  Stream #0:1 -> #0:1 (aac (native) -> pcm_s16le (native))
Output #0, null, to 'pipe:':
  Metadata:
    COMPATIBLE_BRANDS: isomiso2avc1mp41
    MAJOR_BRAND     : isom
    MINOR_VERSION   : 512
    encoder         : Lavf61.7.100
  Stream #0:0: Video: wrapped_avframe, yuv420p10le(tv, bt709, progressive), 1920x1080 [SAR 1:1 DAR 16:9], q=2-31, 200 kb/s, 23.98 fps, 23.98 tbn
      Metadata:
        encoder         : Lavc61.19.100 wrapped_avframe
  Stream #0:1: Audio: pcm_s16le, 48000 Hz, stereo, s16, 1536 kb/s (default)
      Metadata:
        HANDLER_NAME    : SoundHandler
        VENDOR_ID       : [0][0][0][0]
        _STATISTICS_TAGS: BPS DURATION NUMBER_OF_FRAMES NUMBER_OF_BYTES
        BPS             : 193384
        DURATION        : 00:23:46.730000000
        NUMBER_OF_FRAMES: 66879
        NUMBER_OF_BYTES : 34488480
        _STATISTICS_WRITING_APP: mkvpropedit v66.0.0 ('Josie') 64-bit
        _STATISTICS_WRITING_DATE_UTC: 2025-06-03 14:39:21
        encoder         : Lavc61.19.100 pcm_s16le
frame=  174 fps=0.0 q=-0.0 size=N/A time=00:00:07.25 bitrate=N/A speed=14.4x    frame=  394 fps=384 q=-0.0 size=N/A time=00:00:16.43 bitrate=N/A speed=  16x    frame=  635 fps=410 q=-0.0 size=N/A time=00:00:26.48 bitrate=N/A speed=17.1x    frame=  888 fps=431 q=-0.0 size=N/A time=00:00:37.03 bitrate=N/A speed=  18x    frame= 1140 fps=444 q=-0.0 size=N/A time=00:00:47.54 bitrate=N/A speed=18.5x    frame= 1413 fps=457 q=-0.0 size=N/A time=00:00:58.93 bitrate=N/A speed=19.1x    frame= 1680 fps=467 q=-0.0 size=N/A time=00:01:10.07 bitrate=N/A speed=19.5x    frame= 1956 fps=474 q=-0.0 size=N/A time=00:01:21.58 bitrate=N/A speed=19.8x    frame= 2199 fps=474 q=-0.0 size=N/A time=00:01:31.71 bitrate=N/A speed=19.8x    frame= 2441 fps=474 q=-0.0 size=N/A time=00:01:41.81 bitrate=N/A speed=19.8x    frame= 2683 fps=474 q=-0.0 size=N/A time=00:01:51.90 bitrate=N/A speed=19.8x    frame= 2935 fps=474 q=-0.0 size=N/A time=00:02:02.41 bitrate=N/A speed=19.8x    frame= 3184 fps=475 q=-0.0 size=N/A time=00:02:12.79 bitrate=N/A speed=19.8x    frame= 3412 fps=473 q=-0.0 size=N/A time=00:02:22.30 bitrate=N/A speed=19.7x    frame= 3650 fps=473 q=-0.0 size=N/A time=00:02:32.23 bitrate=N/A speed=19.7x    frame= 3850 fps=467 q=-0.0 size=N/A time=00:02:40.57 bitrate=N/A speed=19.5x    frame= 4077 fps=465 q=-0.0 size=N/A time=00:02:50.04 bitrate=N/A speed=19.4x    frame= 4356 fps=470 q=-0.0 size=N/A time=00:03:01.68 bitrate=N/A speed=19.6x    frame= 4590 fps=469 q=-0.0 size=N/A time=00:03:11.44 bitrate=N/A speed=19.6x    frame= 4866 fps=472 q=-0.0 size=N/A time=00:03:22.95 bitrate=N/A speed=19.7x    frame= 5135 fps=475 q=-0.0 size=N/A time=00:03:34.17 bitrate=N/A speed=19.8x    frame= 5402 fps=476 q=-0.0 size=N/A time=00:03:45.30 bitrate=N/A speed=19.9x    frame= 5674 fps=479 q=-0.0 size=N/A time=00:03:56.65 bitrate=N/A speed=  20x    frame= 5954 fps=481 q=-0.0 size=N/A time=00:04:08.33 bitrate=N/A speed=20.1x    frame= 6237 fps=484 q=-0.0 size=N/A time=00:04:20.13 bitrate=N/A speed=20.2x    frame= 6507 fps=485 q=-0.0 size=N/A time=00:04:31.39 bitrate=N/A speed=20.2x    frame= 6798 fps=488 q=-0.0 size=N/A time=00:04:43.53 bitrate=N/A speed=20.4x    frame= 7084 fps=491 q=-0.0 size=N/A time=00:04:55.46 bitrate=N/A speed=20.5x    frame= 7358 fps=492 q=-0.0 size=N/A time=00:05:06.88 bitrate=N/A speed=20.5x    frame= 7639 fps=494 q=-0.0 size=N/A time=00:05:18.60 bitrate=N/A speed=20.6x    frame= 7905 fps=495 q=-0.0 size=N/A time=00:05:29.70 bitrate=N/A speed=20.6x    frame= 8140 fps=493 q=-0.0 size=N/A time=00:05:39.50 bitrate=N/A speed=20.6x    frame= 8394 fps=493 q=-0.0 size=N/A time=00:05:50.09 bitrate=N/A speed=20.6x    frame= 8615 fps=492 q=-0.0 size=N/A time=00:05:59.31 bitrate=N/A speed=20.5x    frame= 8875 fps=492 q=-0.0 size=N/A time=00:06:10.16 bitrate=N/A speed=20.5x    frame= 9139 fps=492 q=-0.0 size=N/A time=00:06:21.17 bitrate=N/A speed=20.5x    frame= 9386 fps=492 q=-0.0 size=N/A time=00:06:31.47 bitrate=N/A speed=20.5x    frame= 9674 fps=494 q=-0.0 size=N/A time=00:06:43.48 bitrate=N/A speed=20.6x    frame= 9948 fps=495 q=-0.0 size=N/A time=00:06:54.91 bitrate=N/A speed=20.6x    frame=10200 fps=495 q=-0.0 size=N/A time=00:07:05.42 bitrate=N/A speed=20.6x    frame=10469 fps=495 q=-0.0 size=N/A time=00:07:16.64 bitrate=N/A speed=20.7x    frame=10670 fps=493 q=-0.0 size=N/A time=00:07:25.02 bitrate=N/A speed=20.6x    frame=10918 fps=492 q=-0.0 size=N/A time=00:07:35.37 bitrate=N/A speed=20.5x    frame=11173 fps=493 q=-0.0 size=N/A time=00:07:46.00 bitrate=N/A speed=20.6x    frame=11418 fps=492 q=-0.0 size=N/A time=00:07:56.22 bitrate=N/A speed=20.5x    frame=11689 fps=493 q=-0.0 size=N/A time=00:08:07.52 bitrate=N/A speed=20.6x    frame=11983 fps=495 q=-0.0 size=N/A time=00:08:19.79 bitrate=N/A speed=20.6x    frame=12235 fps=494 q=-0.0 size=N/A time=00:08:30.30 bitrate=N/A speed=20.6x    frame=12501 fps=495 q=-0.0 size=N/A time=00:08:41.39 bitrate=N/A speed=20.6x    frame=12739 fps=494 q=-0.0 size=N/A time=00:08:51.32 bitrate=N/A speed=20.6x    frame=13020 fps=495 q=-0.0 size=N/A time=00:09:03.04 bitrate=N/A speed=20.7x    frame=13303 fps=496 q=-0.0 size=N/A time=00:09:14.84 bitrate=N/A speed=20.7x    frame=13566 fps=496 q=-0.0 size=N/A time=00:09:25.81 bitrate=N/A speed=20.7x    frame=13797 fps=496 q=-0.0 size=N/A time=00:09:35.44 bitrate=N/A speed=20.7x    frame=14083 fps=497 q=-0.0 size=N/A time=00:09:47.37 bitrate=N/A speed=20.7x    frame=14369 fps=498 q=-0.0 size=N/A time=00:09:59.30 bitrate=N/A speed=20.8x    frame=14600 fps=497 q=-0.0 size=N/A time=00:10:08.94 bitrate=N/A speed=20.7x    frame=14878 fps=498 q=-0.0 size=N/A time=00:10:20.53 bitrate=N/A speed=20.8x    frame=15136 fps=498 q=-0.0 size=N/A time=00:10:31.29 bitrate=N/A speed=20.8x    frame=15422 fps=499 q=-0.0 size=N/A time=00:10:43.22 bitrate=N/A speed=20.8x    frame=15704 fps=499 q=-0.0 size=N/A time=00:10:54.98 bitrate=N/A speed=20.8x    frame=15974 fps=500 q=-0.0 size=N/A time=00:11:06.24 bitrate=N/A speed=20.8x    frame=16257 fps=500 q=-0.0 size=N/A time=00:11:18.05 bitrate=N/A speed=20.9x    frame=16534 fps=501 q=-0.0 size=N/A time=00:11:29.60 bitrate=N/A speed=20.9x    frame=16795 fps=501 q=-0.0 size=N/A time=00:11:40.49 bitrate=N/A speed=20.9x    frame=17076 fps=502 q=-0.0 size=N/A time=00:11:52.21 bitrate=N/A speed=20.9x    frame=17355 fps=502 q=-0.0 size=N/A time=00:12:03.84 bitrate=N/A speed=  21x    frame=17626 fps=503 q=-0.0 size=N/A time=00:12:15.15 bitrate=N/A speed=  21x    frame=17889 fps=503 q=-0.0 size=N/A time=00:12:26.12 bitrate=N/A speed=  21x    frame=18141 fps=503 q=-0.0 size=N/A time=00:12:36.63 bitrate=N/A speed=  21x    frame=18399 fps=503 q=-0.0 size=N/A time=00:12:47.39 bitrate=N/A speed=  21x    frame=18657 fps=503 q=-0.0 size=N/A time=00:12:58.15 bitrate=N/A speed=  21x    frame=18906 fps=502 q=-0.0 size=N/A time=00:13:08.53 bitrate=N/A speed=  21x    frame=19173 fps=502 q=-0.0 size=N/A time=00:13:19.67 bitrate=N/A speed=  21x    frame=19436 fps=503 q=-0.0 size=N/A time=00:13:30.64 bitrate=N/A speed=  21x    frame=19713 fps=503 q=-0.0 size=N/A time=00:13:42.19 bitrate=N/A speed=  21x    frame=19964 fps=503 q=-0.0 size=N/A time=00:13:52.66 bitrate=N/A speed=  21x    frame=20243 fps=503 q=-0.0 size=N/A time=00:14:04.30 bitrate=N/A speed=  21x    frame=20535 fps=504 q=-0.0 size=N/A time=00:14:16.48 bitrate=N/A speed=  21x    frame=20816 fps=505 q=-0.0 size=N/A time=00:14:28.20 bitrate=N/A speed=21.1x    frame=21096 fps=505 q=-0.0 size=N/A time=00:14:39.87 bitrate=N/A speed=21.1x    frame=21377 fps=506 q=-0.0 size=N/A time=00:14:51.59 bitrate=N/A speed=21.1x    frame=21651 fps=506 q=-0.0 size=N/A time=00:15:03.02 bitrate=N/A speed=21.1x    frame=21892 fps=506 q=-0.0 size=N/A time=00:15:13.07 bitrate=N/A speed=21.1x    frame=22146 fps=505 q=-0.0 size=N/A time=00:15:23.67 bitrate=N/A speed=21.1x    frame=22432 fps=506 q=-0.0 size=N/A time=00:15:35.60 bitrate=N/A speed=21.1x    frame=22689 fps=506 q=-0.0 size=N/A time=00:15:46.32 bitrate=N/A speed=21.1x    frame=22957 fps=506 q=-0.0 size=N/A time=00:15:57.49 bitrate=N/A speed=21.1x    frame=23219 fps=506 q=-0.0 size=N/A time=00:16:08.42 bitrate=N/A speed=21.1x    frame=23439 fps=505 q=-0.0 size=N/A time=00:16:17.60 bitrate=N/A speed=21.1x    frame=23676 fps=505 q=-0.0 size=N/A time=00:16:27.48 bitrate=N/A speed=  21x    frame=23930 fps=504 q=-0.0 size=N/A time=00:16:38.08 bitrate=N/A speed=  21x    frame=24170 fps=504 q=-0.0 size=N/A time=00:16:48.09 bitrate=N/A speed=  21x    frame=24419 fps=504 q=-0.0 size=N/A time=00:16:58.47 bitrate=N/A speed=  21x    frame=24668 fps=504 q=-0.0 size=N/A time=00:17:08.86 bitrate=N/A speed=  21x    frame=24955 fps=504 q=-0.0 size=N/A time=00:17:20.83 bitrate=N/A speed=  21x    frame=25240 fps=505 q=-0.0 size=N/A time=00:17:32.71 bitrate=N/A speed=  21x    frame=25532 fps=505 q=-0.0 size=N/A time=00:17:44.89 bitrate=N/A speed=21.1x    frame=25827 fps=506 q=-0.0 size=N/A time=00:17:57.20 bitrate=N/A speed=21.1x    frame=26071 fps=506 q=-0.0 size=N/A time=00:18:07.37 bitrate=N/A speed=21.1x    frame=26328 fps=506 q=-0.0 size=N/A time=00:18:18.09 bitrate=N/A speed=21.1x    frame=26609 fps=506 q=-0.0 size=N/A time=00:18:29.81 bitrate=N/A speed=21.1x    frame=26869 fps=506 q=-0.0 size=N/A time=00:18:40.66 bitrate=N/A speed=21.1x    frame=27106 fps=506 q=-0.0 size=N/A time=00:18:50.54 bitrate=N/A speed=21.1x    frame=27373 fps=506 q=-0.0 size=N/A time=00:19:01.68 bitrate=N/A speed=21.1x    frame=27622 fps=505 q=-0.0 size=N/A time=00:19:12.06 bitrate=N/A speed=21.1x    frame=27893 fps=506 q=-0.0 size=N/A time=00:19:23.37 bitrate=N/A speed=21.1x    frame=28155 fps=506 q=-0.0 size=N/A time=00:19:34.29 bitrate=N/A speed=21.1x    frame=28413 fps=506 q=-0.0 size=N/A time=00:19:45.05 bitrate=N/A speed=21.1x    frame=28681 fps=506 q=-0.0 size=N/A time=00:19:56.23 bitrate=N/A speed=21.1x    frame=28931 fps=506 q=-0.0 size=N/A time=00:20:06.66 bitrate=N/A speed=21.1x    frame=29196 fps=506 q=-0.0 size=N/A time=00:20:17.71 bitrate=N/A speed=21.1x    frame=29428 fps=505 q=-0.0 size=N/A time=00:20:27.39 bitrate=N/A speed=21.1x    frame=29710 fps=505 q=-0.0 size=N/A time=00:20:39.15 bitrate=N/A speed=21.1x    frame=29982 fps=505 q=-0.0 size=N/A time=00:20:50.49 bitrate=N/A speed=21.1x    frame=30216 fps=505 q=-0.0 size=N/A time=00:21:00.25 bitrate=N/A speed=21.1x    frame=30504 fps=505 q=-0.0 size=N/A time=00:21:12.27 bitrate=N/A speed=21.1x    frame=30787 fps=506 q=-0.0 size=N/A time=00:21:24.07 bitrate=N/A speed=21.1x    frame=31061 fps=506 q=-0.0 size=N/A time=00:21:35.50 bitrate=N/A speed=21.1x    frame=31349 fps=506 q=-0.0 size=N/A time=00:21:47.51 bitrate=N/A speed=21.1x    frame=31594 fps=506 q=-0.0 size=N/A time=00:21:57.73 bitrate=N/A speed=21.1x    frame=31872 fps=506 q=-0.0 size=N/A time=00:22:09.32 bitrate=N/A speed=21.1x    frame=32138 fps=507 q=-0.0 size=N/A time=00:22:20.42 bitrate=N/A speed=21.1x    frame=32422 fps=507 q=-0.0 size=N/A time=00:22:32.26 bitrate=N/A speed=21.1x    frame=32687 fps=507 q=-0.0 size=N/A time=00:22:43.32 bitrate=N/A speed=21.1x    frame=32952 fps=507 q=-0.0 size=N/A time=00:22:54.37 bitrate=N/A speed=21.1x    frame=33240 fps=507 q=-0.0 size=N/A time=00:23:06.38 bitrate=N/A speed=21.2x    frame=33522 fps=508 q=-0.0 size=N/A time=00:23:18.14 bitrate=N/A speed=21.2x    frame=33779 fps=508 q=-0.0 size=N/A time=00:23:28.86 bitrate=N/A speed=21.2x    frame=34032 fps=507 q=-0.0 size=N/A time=00:23:39.41 bitrate=N/A speed=21.2x    [Parsed_ssim_10 @ 000001efc84ddb40] SSIM Y:0.994688 (22.747163) U:0.990799 (20.361874) V:0.991835 (20.880474) All:0.993564 (21.913984)
[out#0/null @ 000001efc7c65580] video:14697KiB audio:267516KiB subtitle:0KiB other streams:0KiB global headers:0KiB muxing overhead: unknown
frame=34203 fps=508 q=-0.0 Lsize=N/A time=00:23:46.55 bitrate=N/A speed=21.2x    
